<svg xmlns="http://www.w3.org/2000/svg" xmlns:xlink="http://www.w3.org/1999/xlink" width="168" height="25" viewBox="0 0 168 25">
  <defs>
    <path id="logo-full-horizontal-a" d="M3.65132979,3.70093085 C1.23896277,6.09042553 0.0331117021,9.03763298 0.0331117021,12.5418883 L0.0331117021,12.5418883 C0.0331117021,16.0465426 1.23896277,18.9932181 3.65132979,21.3827128 L3.65132979,21.3827128 C6.06316489,23.7722074 8.99880319,24.9668883 12.4581117,24.9668883 L12.4581117,24.9668883 C15.9168883,24.9668883 18.8525266,23.7722074 21.2648936,21.3827128 L21.2648936,21.3827128 C23.6767287,18.9932181 24.8831117,16.0465426 24.8831117,12.5418883 L24.8831117,12.5418883 C24.8831117,9.03763298 23.6767287,6.09042553 21.2648936,3.70093085 L21.2648936,3.70093085 C18.8525266,1.31156915 15.9168883,0.116888298 12.4581117,0.116888298 L12.4581117,0.116888298 C8.99880319,0.116888298 6.06316489,1.31156915 3.65132979,3.70093085 M7.49148936,17.6621011 C6.16023936,16.3425532 5.49454787,14.6357713 5.49454787,12.5418883 L5.49454787,12.5418883 C5.49454787,10.4484043 6.16023936,8.74175532 7.49148936,7.42154255 L7.49148936,7.42154255 C8.82287234,6.10212766 10.4783245,5.4418883 12.4581117,5.4418883 L12.4581117,5.4418883 C14.4380319,5.4418883 16.093484,6.10212766 17.424734,7.42154255 L17.424734,7.42154255 C18.755984,8.74175532 19.4216755,10.4484043 19.4216755,12.5418883 L19.4216755,12.5418883 C19.4216755,14.6357713 18.755984,16.3425532 17.424734,17.6621011 L17.424734,17.6621011 C16.093484,18.9821809 14.4380319,19.6418883 12.4581117,19.6418883 L12.4581117,19.6418883 C10.4783245,19.6418883 8.82287234,18.9821809 7.49148936,17.6621011"/>
    <linearGradient id="logo-full-horizontal-b" x1="10.341%" x2="115.85%" y1="18.468%" y2="102.356%">
      <stop offset="0%" stop-color="#6451A0"/>
      <stop offset="100%" stop-color="#D4006D"/>
    </linearGradient>
    <linearGradient id="logo-full-horizontal-d" x1="28.432%" x2="58.435%" y1="-12.718%" y2="74.525%">
      <stop offset="0%" stop-color="#6451A0"/>
      <stop offset="100%" stop-color="#D4006D"/>
    </linearGradient>
  </defs>
  <g fill="none" fill-rule="evenodd">
    <path class="part-ataccama" fill="#33012A" d="M4.86219567 14.2382743C5.6055547 15.0004457 6.54900243 15.3811243 7.69253886 15.3811243 8.83607529 15.3811243 9.78394857 15.0004457 10.5370975 14.2382743 11.289844 13.47651 11.6664185 12.4978743 11.6664185 11.3016886 11.6664185 10.1060457 11.289844 9.12727429 10.5370975 8.36510286 9.78394857 7.60333857 8.83607529 7.22238857 7.69253886 7.22238857 6.54900243 7.22238857 5.6055547 7.60333857 4.86219567 8.36510286 4.11883664 9.12727429 3.74722418 10.1060457 3.74722418 11.3016886 3.74722418 12.4978743 4.11883664 13.47651 4.86219567 14.2382743L4.86219567 14.2382743zM11.6664185 4.06866L15.3543805 4.06866 15.3543805 18.5345814 11.6664185 18.5345814 11.6664185 16.8275671C10.5608345 18.2357386 9.00759905 18.9396886 7.00630971 18.9396886 5.10023685 18.9396886 3.4657321 18.20181 2.10333189 16.7263243.740395248 15.2508386.0592621964 13.4427171.0592621964 11.3016886.0592621964 9.16066.740395248 7.35253857 2.10333189 5.87705286 3.4657321 4.40156714 5.10023685 3.66368857 7.00630971 3.66368857 9.00759905 3.66368857 10.5608345 4.36791 11.6664185 5.77581L11.6664185 4.06866zM26.1641055 7.65625357L22.9335849 7.65625357 22.9335849 13.6740964C22.9335849 14.1758321 23.0572322 14.5419893 23.3051974 14.7733821 23.5526261 15.0049107 23.9149851 15.1350607 24.3916039 15.1639679 24.8678204 15.1930107 25.4586989 15.1883964 26.1641055 15.1495821L26.1641055 18.5345679C23.6290675 18.8239107 21.8422164 18.582475 20.8036863 17.8112107 19.7646197 17.0400821 19.2454888 15.6608179 19.2454888 13.6740964L19.2454888 7.65625357 16.7583272 7.65625357 16.7583272 4.06864643 19.2454888 4.06864643 19.2454888 1.14658214 22.9335849.0183892857 22.9335849 4.06864643 26.1641055 4.06864643 26.1641055 7.65625357zM31.6604563 14.2382743C32.4038153 15.0004457 33.347263 15.3811243 34.4907995 15.3811243 35.6343359 15.3811243 36.5822092 15.0004457 37.3353581 14.2382743 38.0881046 13.47651 38.4646791 12.4978743 38.4646791 11.3016886 38.4646791 10.1060457 38.0881046 9.12727429 37.3353581 8.36510286 36.5822092 7.60333857 35.6343359 7.22238857 34.4907995 7.22238857 33.347263 7.22238857 32.4038153 7.60333857 31.6604563 8.36510286 30.9170973 9.12727429 30.5454848 10.1060457 30.5454848 11.3016886 30.5454848 12.4978743 30.9170973 13.47651 31.6604563 14.2382743L31.6604563 14.2382743zM38.4646791 4.06866L42.1526411 4.06866 42.1526411 18.5345814 38.4646791 18.5345814 38.4646791 16.8275671C37.3590951 18.2357386 35.8058597 18.9396886 33.8045703 18.9396886 31.8984975 18.9396886 30.2639927 18.20181 28.9015925 16.7263243 27.5386559 15.2508386 26.8575228 13.4427171 26.8575228 11.3016886 26.8575228 9.16066 27.5386559 7.35253857 28.9015925 5.87705286 30.2639927 4.40156714 31.8984975 3.66368857 33.8045703 3.66368857 35.8058597 3.66368857 37.3590951 4.36791 38.4646791 5.77581L38.4646791 4.06866zM51.0012286 18.9396207C48.8471906 18.9396207 47.050952 18.2068993 45.6121103 16.7407779 44.1728664 15.2751993 43.4536468 13.4620564 43.4536468 11.3017564 43.4536468 9.14172786 44.1728664 7.32844929 45.6121103 5.86259929 47.050952 4.39702071 48.8471906 3.66362071 51.0012286 3.66362071 52.3923279 3.66362071 53.660048 4.00141357 54.8035845 4.67632071 55.9471209 5.351635 56.8142614 6.25807071 57.4051399 7.39576357L54.2317492 9.27649214C53.9459657 8.67880643 53.5121272 8.20597786 52.9310385 7.85882071 52.3494134 7.51166357 51.6967112 7.338085 50.9726637 7.338085 49.8670797 7.338085 48.9521969 7.70967071 48.2281494 8.45189214 47.5035655 9.19452071 47.1417429 10.1442493 47.1417429 11.3017564 47.1417429 12.4398564 47.5035655 13.3802207 48.2281494 14.1225779 48.9521969 14.8652064 49.8670797 15.236385 50.9726637 15.236385 51.7160227 15.236385 52.3779784 15.0678279 52.9596035 14.730035 53.5408263 14.392785 53.9745306 13.9249779 54.2603141 13.3270207L57.4624039 15.178435C56.8334388 16.3168064 55.9471209 17.2281279 54.8035845 17.912535 53.660048 18.5969421 52.3923279 18.9396207 51.0012286 18.9396207M65.4422685 18.9396207C63.2882305 18.9396207 61.4919919 18.2068993 60.0531503 16.7407779 58.6139063 15.2751993 57.8946867 13.4620564 57.8946867 11.3017564 57.8946867 9.14172786 58.6139063 7.32844929 60.0531503 5.86259929 61.4919919 4.39702071 63.2882305 3.66362071 65.4422685 3.66362071 66.8333678 3.66362071 68.101088 4.00141357 69.2446244 4.67632071 70.3881608 5.351635 71.2553013 6.25807071 71.8461798 7.39576357L68.6727891 9.27649214C68.3870056 8.67880643 67.9531672 8.20597786 67.3720785 7.85882071 66.7904533 7.51166357 66.1377511 7.338085 65.4137036 7.338085 64.3081196 7.338085 63.3932369 7.70967071 62.6691893 8.45189214 61.9446054 9.19452071 61.5827828 10.1442493 61.5827828 11.3017564 61.5827828 12.4398564 61.9446054 13.3802207 62.6691893 14.1225779 63.3932369 14.8652064 64.3081196 15.236385 65.4137036 15.236385 66.1570626 15.236385 66.8190183 15.0678279 67.4006434 14.730035 67.9818662 14.392785 68.4155705 13.9249779 68.7013541 13.3270207L71.9034438 15.178435C71.2744787 16.3168064 70.3881608 17.2281279 69.2446244 17.912535 68.101088 18.5969421 66.8333678 18.9396207 65.4422685 18.9396207M77.1877971 14.2382743C77.9311562 15.0004457 78.8746039 15.3811243 80.0181403 15.3811243 81.1616768 15.3811243 82.1095501 15.0004457 82.8626989 14.2382743 83.6154455 13.47651 83.99202 12.4978743 83.99202 11.3016886 83.99202 10.1060457 83.6154455 9.12727429 82.8626989 8.36510286 82.1095501 7.60333857 81.1616768 7.22238857 80.0181403 7.22238857 78.8746039 7.22238857 77.9311562 7.60333857 77.1877971 8.36510286 76.4444381 9.12727429 76.0728257 10.1060457 76.0728257 11.3016886 76.0728257 12.4978743 76.4444381 13.47651 77.1877971 14.2382743L77.1877971 14.2382743zM83.99202 4.06866L87.6799819 4.06866 87.6799819 18.5345814 83.99202 18.5345814 83.99202 16.8275671C82.886436 18.2357386 81.3332005 18.9396886 79.3319112 18.9396886 77.4258383 18.9396886 75.7913336 18.20181 74.4289334 16.7263243 73.0659967 15.2508386 72.3848637 13.4427171 72.3848637 11.3016886 72.3848637 9.16066 73.0659967 7.35253857 74.4289334 5.87705286 75.7913336 4.40156714 77.4258383 3.66368857 79.3319112 3.66368857 81.3332005 3.66368857 82.886436 4.36791 83.99202 5.77581L83.99202 4.06866zM105.117069 3.66368857C106.755999 3.66368857 108.066231 4.20383143 109.048034 5.28384571 110.029434 6.36426714 110.520402 7.81098143 110.520402 9.62358143L110.520402 18.5345814 106.83244 18.5345814 106.83244 9.88401714C106.83244 9.01598857 106.622428 8.34121714 106.203475 7.85875286 105.783986 7.37683143 105.192973 7.13553143 104.430973 7.13553143 103.591996 7.13553143 102.939293 7.41537429 102.472599 7.97451714 102.005367 8.53420286 101.772154 9.34414571 101.772154 10.4047529L101.772154 18.5345814 98.084058 18.5345814 98.084058 9.88401714C98.084058 9.01598857 97.8741794 8.34121714 97.4550928 7.85875286 97.035738 7.37683143 96.4447253 7.13553143 95.6825912 7.13553143 94.8629249 7.13553143 94.2102227 7.41537429 93.7242164 7.97451714 93.23821 8.53420286 92.9952069 9.34414571 92.9952069 10.4047529L92.9952069 18.5345814 89.3072449 18.5345814 89.3072449 4.06866 92.9952069 4.06866 92.9952069 5.60209571C93.8529598 4.31023143 95.1774075 3.66368857 96.9690865 3.66368857 98.7224107 3.66368857 100.018428 4.35800286 100.857271 5.74690286 101.810107 4.35800286 103.230173 3.66368857 105.117069 3.66368857M116.497824 14.2382743C117.241049 15.0004457 118.184631 15.3811243 119.328033 15.3811243 120.471704 15.3811243 121.419577 15.0004457 122.172726 14.2382743 122.925473 13.47651 123.302047 12.4978743 123.302047 11.3016886 123.302047 10.1060457 122.925473 9.12727429 122.172726 8.36510286 121.419577 7.60333857 120.471704 7.22238857 119.328033 7.22238857 118.184631 7.22238857 117.241049 7.60333857 116.497824 8.36510286 115.754465 9.12727429 115.382853 10.1060457 115.382853 11.3016886 115.382853 12.4978743 115.754465 13.47651 116.497824 14.2382743L116.497824 14.2382743zM123.302047 4.06866L126.990009 4.06866 126.990009 18.5345814 123.302047 18.5345814 123.302047 16.8275671C122.196463 18.2357386 120.643228 18.9396886 118.641938 18.9396886 116.735865 18.9396886 115.101361 18.20181 113.73896 16.7263243 112.376024 15.2508386 111.694891 13.4427171 111.694891 11.3016886 111.694891 9.16066 112.376024 7.35253857 113.73896 5.87705286 115.101361 4.40156714 116.735865 3.66368857 118.641938 3.66368857 120.643228 3.66368857 122.196463 4.36791 123.302047 5.77581L123.302047 4.06866z" transform="translate(41 2)"/>
    <mask id="logo-full-horizontal-c" fill="#fff">
      <use xlink:href="#logo-full-horizontal-a"/>
    </mask>
    <path class="part-symbol" fill="url(#logo-full-horizontal-b)" d="M3.65132979,3.70093085 C1.23896277,6.09042553 0.0331117021,9.03763298 0.0331117021,12.5418883 L0.0331117021,12.5418883 C0.0331117021,16.0465426 1.23896277,18.9932181 3.65132979,21.3827128 L3.65132979,21.3827128 C6.06316489,23.7722074 8.99880319,24.9668883 12.4581117,24.9668883 L12.4581117,24.9668883 C15.9168883,24.9668883 18.8525266,23.7722074 21.2648936,21.3827128 L21.2648936,21.3827128 C23.6767287,18.9932181 24.8831117,16.0465426 24.8831117,12.5418883 L24.8831117,12.5418883 C24.8831117,9.03763298 23.6767287,6.09042553 21.2648936,3.70093085 L21.2648936,3.70093085 C18.8525266,1.31156915 15.9168883,0.116888298 12.4581117,0.116888298 L12.4581117,0.116888298 C8.99880319,0.116888298 6.06316489,1.31156915 3.65132979,3.70093085 M7.49148936,17.6621011 C6.16023936,16.3425532 5.49454787,14.6357713 5.49454787,12.5418883 L5.49454787,12.5418883 C5.49454787,10.4484043 6.16023936,8.74175532 7.49148936,7.42154255 L7.49148936,7.42154255 C8.82287234,6.10212766 10.4783245,5.4418883 12.4581117,5.4418883 L12.4581117,5.4418883 C14.4380319,5.4418883 16.093484,6.10212766 17.424734,7.42154255 L17.424734,7.42154255 C18.755984,8.74175532 19.4216755,10.4484043 19.4216755,12.5418883 L19.4216755,12.5418883 C19.4216755,14.6357713 18.755984,16.3425532 17.424734,17.6621011 L17.424734,17.6621011 C16.093484,18.9821809 14.4380319,19.6418883 12.4581117,19.6418883 L12.4581117,19.6418883 C10.4783245,19.6418883 8.82287234,18.9821809 7.49148936,17.6621011" mask="url(#logo-full-horizontal-c)"/>
    <polygon class="part-symbol" fill="url(#logo-full-horizontal-d)" points="24 24 30 24 30 0 24 0"/>
  </g>
</svg>
